<?xml version="1.0" encoding="utf-8"?>
<!-- Generator: Adobe Illustrator 16.0.0, SVG Export Plug-In . SVG Version: 6.00 Build 0)  -->
<!DOCTYPE svg PUBLIC "-//W3C//DTD SVG 1.1//EN" "http://www.w3.org/Graphics/SVG/1.1/DTD/svg11.dtd">
<svg version="1.1" id="Layer_1" xmlns="http://www.w3.org/2000/svg" xmlns:xlink="http://www.w3.org/1999/xlink" x="0px" y="0px"
	 width="149px" height="75px" viewBox="0 0 149 75" enable-background="new 0 0 149 75" xml:space="preserve">
<g>
	<path fill="#00AEEF" d="M15.304,51.142h0.427v2.931c0,0.99,0.311,1.456,1.058,1.456c0.554,0,0.961-0.291,1.504-0.951v-3.436h0.428
		V55.8H18.36l-0.049-0.776h-0.02c-0.456,0.534-0.941,0.893-1.581,0.893c-0.961,0-1.407-0.582-1.407-1.785V51.142z"/>
	<path fill="#00AEEF" d="M20.507,48.822h0.428v6.415c0,0.203,0.087,0.301,0.203,0.301c0.039,0,0.078,0,0.175-0.02l0.078,0.35
		c-0.088,0.028-0.175,0.048-0.311,0.048c-0.379,0-0.573-0.232-0.573-0.737V48.822z"/>
	<path fill="#00AEEF" d="M22.915,51.511h-0.729v-0.33l0.738-0.039l0.058-1.349h0.369v1.349H24.7v0.369h-1.349v3.037
		c0,0.592,0.146,0.99,0.786,0.99c0.175,0,0.417-0.068,0.582-0.146l0.116,0.349c-0.271,0.098-0.563,0.175-0.757,0.175
		c-0.902,0-1.164-0.572-1.164-1.407V51.511z"/>
	<path fill="#00AEEF" d="M25.837,51.142h0.369l0.039,0.863h0.028c0.311-0.572,0.767-0.979,1.32-0.979
		c0.175,0,0.311,0.02,0.466,0.097l-0.097,0.389c-0.155-0.059-0.243-0.078-0.428-0.078c-0.417,0-0.912,0.32-1.271,1.193V55.8h-0.428
		V51.142z"/>
	<path fill="#00AEEF" d="M31.438,52.879c0.019-0.709-0.185-1.476-1.097-1.476c-0.631,0-1.175,0.311-1.485,0.544l-0.194-0.32
		c0.33-0.233,0.971-0.602,1.728-0.602c1.106,0,1.476,0.796,1.476,1.795V55.8h-0.359l-0.049-0.602h-0.019
		c-0.476,0.378-1.039,0.718-1.65,0.718c-0.737,0-1.358-0.397-1.358-1.281C28.429,53.606,29.37,53.111,31.438,52.879z M29.855,55.548
		c0.533,0,1.009-0.263,1.582-0.757v-1.582c-1.912,0.223-2.563,0.669-2.563,1.407C28.875,55.285,29.321,55.548,29.855,55.548z"/>
	<path fill="#00AEEF" d="M35.321,49.21c-0.194-0.097-0.389-0.136-0.563-0.136c-0.494,0-0.728,0.389-0.728,1.059v1.009h1.077v0.369
		H34.03V55.8h-0.427v-4.289h-0.641v-0.33l0.641-0.039v-1.038c0-0.922,0.417-1.397,1.154-1.397c0.214,0,0.466,0.058,0.68,0.155
		L35.321,49.21z"/>
	<path fill="#00AEEF" d="M38.642,52.879c0.019-0.709-0.185-1.476-1.097-1.476c-0.631,0-1.175,0.311-1.485,0.544l-0.194-0.32
		c0.33-0.233,0.971-0.602,1.728-0.602c1.106,0,1.476,0.796,1.476,1.795V55.8h-0.359l-0.049-0.602h-0.019
		c-0.476,0.378-1.039,0.718-1.65,0.718c-0.737,0-1.358-0.397-1.358-1.281C35.633,53.606,36.574,53.111,38.642,52.879z M37.06,55.548
		c0.533,0,1.009-0.263,1.582-0.757v-1.582c-1.912,0.223-2.563,0.669-2.563,1.407C36.079,55.285,36.525,55.548,37.06,55.548z"/>
	<path fill="#00AEEF" d="M40.409,54.955c0.398,0.33,0.815,0.593,1.485,0.593c0.728,0,1.106-0.428,1.106-0.922
		c0-0.583-0.602-0.835-1.136-1.029c-0.708-0.252-1.484-0.533-1.484-1.329c0-0.68,0.533-1.242,1.504-1.242
		c0.495,0,0.989,0.203,1.329,0.485l-0.232,0.301c-0.311-0.233-0.641-0.418-1.116-0.418c-0.718,0-1.048,0.418-1.048,0.845
		c0,0.515,0.543,0.737,1.097,0.941c0.728,0.271,1.523,0.515,1.523,1.427c0,0.698-0.563,1.31-1.572,1.31
		c-0.689,0-1.291-0.291-1.708-0.641L40.409,54.955z"/>
	<path fill="#00AEEF" d="M44.778,51.511H44.05v-0.33l0.738-0.039l0.058-1.349h0.369v1.349h1.349v0.369h-1.349v3.037
		c0,0.592,0.146,0.99,0.786,0.99c0.175,0,0.417-0.068,0.582-0.146l0.116,0.349c-0.271,0.098-0.563,0.175-0.757,0.175
		c-0.902,0-1.164-0.572-1.164-1.407V51.511z"/>
	<path fill="#00AEEF" d="M54.048,55.916c-0.408-0.146-0.864-0.407-1.368-0.806c-0.466,0.476-1.029,0.806-1.747,0.806
		c-1.02,0-1.844-0.679-1.844-1.737c0-0.844,0.641-1.388,1.31-1.882c-0.262-0.544-0.427-1.087-0.427-1.582
		c0-0.825,0.544-1.427,1.32-1.427c0.688,0,1.067,0.495,1.067,1.164c0,0.825-0.747,1.369-1.476,1.912
		C51.33,53.18,52,53.976,52.66,54.558c0.456-0.572,0.786-1.291,1.009-2.105h0.418c-0.253,0.873-0.621,1.698-1.136,2.348
		c0.446,0.359,0.873,0.603,1.242,0.738L54.048,55.916z M52.388,54.858c-0.679-0.621-1.358-1.427-1.814-2.251
		c-0.572,0.446-1.048,0.912-1.048,1.543c0,0.844,0.66,1.397,1.446,1.397C51.495,55.548,51.99,55.266,52.388,54.858z M50.729,52.054
		c0.65-0.466,1.242-0.922,1.242-1.582c0-0.417-0.185-0.834-0.698-0.834c-0.563,0-0.902,0.476-0.902,1.058
		C50.37,51.122,50.506,51.588,50.729,52.054z"/>
	<path fill="#00AEEF" d="M57.146,48.822h0.427v6.415c0,0.203,0.088,0.301,0.204,0.301c0.039,0,0.078,0,0.175-0.02l0.078,0.35
		c-0.088,0.028-0.175,0.048-0.311,0.048c-0.379,0-0.573-0.232-0.573-0.737V48.822z"/>
	<path fill="#00AEEF" d="M59.282,49.638c0-0.243,0.175-0.389,0.389-0.389c0.213,0,0.388,0.146,0.388,0.389
		c0,0.223-0.175,0.378-0.388,0.378C59.457,50.016,59.282,49.86,59.282,49.638z M59.447,51.142h0.427V55.8h-0.427V51.142z"/>
	<path fill="#00AEEF" d="M61.971,55.625v-0.039c-0.232-0.136-0.407-0.388-0.407-0.747c0-0.417,0.301-0.708,0.505-0.854v-0.039
		c-0.291-0.252-0.583-0.718-0.583-1.281c0-0.961,0.729-1.64,1.641-1.64c0.252,0,0.466,0.058,0.611,0.116h1.582v0.359h-1.087
		c0.301,0.262,0.514,0.679,0.514,1.174c0,0.951-0.708,1.641-1.62,1.641c-0.262,0-0.563-0.068-0.776-0.194
		c-0.204,0.165-0.379,0.359-0.379,0.67c0,0.339,0.194,0.611,0.894,0.611h0.999c1.048,0,1.533,0.329,1.533,1.067
		c0,0.806-0.863,1.572-2.203,1.572c-1.174,0-1.911-0.505-1.911-1.291C61.282,56.344,61.544,55.936,61.971,55.625z M63.242,57.692
		c1.048,0,1.718-0.592,1.718-1.175c0-0.514-0.379-0.708-1.077-0.708h-1c-0.097,0-0.339-0.02-0.582-0.078
		c-0.427,0.292-0.611,0.65-0.611,0.98C61.689,57.294,62.253,57.692,63.242,57.692z M64.329,52.665c0-0.786-0.543-1.29-1.203-1.29
		s-1.213,0.494-1.213,1.29c0,0.786,0.563,1.311,1.213,1.311C63.767,53.976,64.329,53.451,64.329,52.665z"/>
	<path fill="#00AEEF" d="M66.398,48.822h0.427v2.019v1.028c0.485-0.485,0.971-0.844,1.611-0.844c0.961,0,1.407,0.582,1.407,1.785
		V55.8h-0.427v-2.931c0-0.99-0.311-1.456-1.067-1.456c-0.554,0-0.951,0.291-1.524,0.874V55.8h-0.427V48.822z"/>
	<path fill="#00AEEF" d="M71.632,51.511h-0.729v-0.33l0.738-0.039l0.058-1.349h0.369v1.349h1.349v0.369h-1.349v3.037
		c0,0.592,0.146,0.99,0.786,0.99c0.175,0,0.417-0.068,0.582-0.146l0.116,0.349c-0.271,0.098-0.563,0.175-0.757,0.175
		c-0.902,0-1.164-0.572-1.164-1.407V51.511z"/>
	<path fill="#00AEEF" d="M73.894,51.142h0.467l0.834,3.019c0.116,0.427,0.224,0.824,0.32,1.242h0.039
		c0.106-0.418,0.223-0.815,0.34-1.242l0.844-3.019h0.515l0.844,3.019c0.117,0.427,0.233,0.824,0.35,1.242h0.039
		c0.106-0.418,0.224-0.815,0.33-1.242l0.825-3.019h0.437l-1.34,4.658h-0.563l-0.815-2.892c-0.136-0.447-0.223-0.874-0.359-1.33
		h-0.038c-0.107,0.456-0.224,0.902-0.369,1.35L75.786,55.8h-0.514L73.894,51.142z"/>
	<path fill="#00AEEF" d="M82.845,51.025c1.106,0,1.785,0.786,1.785,2.154c0,0.116,0,0.232-0.02,0.35h-3.357
		c0.02,1.174,0.708,2.019,1.757,2.019c0.504,0,0.902-0.165,1.252-0.418l0.174,0.33c-0.368,0.224-0.786,0.456-1.465,0.456
		c-1.193,0-2.154-0.912-2.154-2.436S81.806,51.025,82.845,51.025z M84.223,53.199c0-1.194-0.534-1.806-1.368-1.806
		c-0.796,0-1.505,0.689-1.602,1.806H84.223z"/>
	<path fill="#00AEEF" d="M85.728,49.638c0-0.243,0.175-0.389,0.389-0.389c0.213,0,0.388,0.146,0.388,0.389
		c0,0.223-0.175,0.378-0.388,0.378C85.902,50.016,85.728,49.86,85.728,49.638z M85.893,51.142h0.427V55.8h-0.427V51.142z"/>
	<path fill="#00AEEF" d="M88.417,55.625v-0.039c-0.232-0.136-0.407-0.388-0.407-0.747c0-0.417,0.301-0.708,0.505-0.854v-0.039
		c-0.291-0.252-0.583-0.718-0.583-1.281c0-0.961,0.729-1.64,1.641-1.64c0.252,0,0.466,0.058,0.611,0.116h1.582v0.359h-1.087
		c0.301,0.262,0.514,0.679,0.514,1.174c0,0.951-0.708,1.641-1.62,1.641c-0.262,0-0.563-0.068-0.776-0.194
		c-0.204,0.165-0.379,0.359-0.379,0.67c0,0.339,0.194,0.611,0.894,0.611h0.999c1.048,0,1.533,0.329,1.533,1.067
		c0,0.806-0.863,1.572-2.203,1.572c-1.174,0-1.911-0.505-1.911-1.291C87.729,56.344,87.99,55.936,88.417,55.625z M89.688,57.692
		c1.048,0,1.718-0.592,1.718-1.175c0-0.514-0.378-0.708-1.077-0.708h-1c-0.097,0-0.339-0.02-0.582-0.078
		c-0.427,0.292-0.611,0.65-0.611,0.98C88.136,57.294,88.698,57.692,89.688,57.692z M90.775,52.665c0-0.786-0.543-1.29-1.203-1.29
		s-1.213,0.494-1.213,1.29c0,0.786,0.563,1.311,1.213,1.311C90.213,53.976,90.775,53.451,90.775,52.665z"/>
	<path fill="#00AEEF" d="M92.844,48.822h0.427v2.019v1.028c0.485-0.485,0.971-0.844,1.611-0.844c0.961,0,1.407,0.582,1.407,1.785
		V55.8h-0.427v-2.931c0-0.99-0.311-1.456-1.067-1.456c-0.554,0-0.951,0.291-1.524,0.874V55.8h-0.427V48.822z"/>
	<path fill="#00AEEF" d="M98.077,51.511h-0.729v-0.33l0.738-0.039l0.058-1.349h0.369v1.349h1.349v0.369h-1.349v3.037
		c0,0.592,0.146,0.99,0.786,0.99c0.175,0,0.417-0.068,0.582-0.146l0.116,0.349c-0.271,0.098-0.563,0.175-0.757,0.175
		c-0.902,0-1.164-0.572-1.164-1.407V51.511z"/>
	<path fill="#00AEEF" d="M104.717,49.21c-0.194-0.097-0.389-0.136-0.563-0.136c-0.494,0-0.728,0.389-0.728,1.059v1.009h1.077v0.369
		h-1.077V55.8h-0.427v-4.289h-0.641v-0.33l0.641-0.039v-1.038c0-0.922,0.417-1.397,1.154-1.397c0.214,0,0.466,0.058,0.68,0.155
		L104.717,49.21z"/>
	<path fill="#00AEEF" d="M105.484,51.142h0.369l0.039,0.863h0.028c0.311-0.572,0.768-0.979,1.32-0.979
		c0.175,0,0.311,0.02,0.466,0.097l-0.097,0.389c-0.155-0.059-0.243-0.078-0.428-0.078c-0.417,0-0.912,0.32-1.271,1.193V55.8h-0.427
		V51.142z"/>
	<path fill="#00AEEF" d="M110.163,51.025c1.126,0,2.097,0.893,2.097,2.455c0,1.543-0.971,2.436-2.097,2.436
		c-1.115,0-2.086-0.893-2.086-2.436C108.077,51.918,109.048,51.025,110.163,51.025z M110.163,55.538c0.941,0,1.65-0.835,1.65-2.058
		c0-1.232-0.709-2.077-1.65-2.077s-1.64,0.845-1.64,2.077C108.523,54.703,109.222,55.538,110.163,55.538z"/>
	<path fill="#00AEEF" d="M113.658,51.142h0.369l0.039,0.718h0.028c0.476-0.476,0.961-0.834,1.602-0.834
		c0.961,0,1.407,0.582,1.407,1.785V55.8h-0.427v-2.931c0-0.99-0.311-1.456-1.067-1.456c-0.554,0-0.951,0.291-1.524,0.874V55.8
		h-0.427V51.142z"/>
	<path fill="#00AEEF" d="M118.931,51.511h-0.729v-0.33l0.738-0.039l0.058-1.349h0.369v1.349h1.349v0.369h-1.349v3.037
		c0,0.592,0.146,0.99,0.786,0.99c0.175,0,0.417-0.068,0.582-0.146l0.116,0.349c-0.271,0.098-0.563,0.175-0.757,0.175
		c-0.902,0-1.164-0.572-1.164-1.407V51.511z"/>
	<path fill="#00AEEF" d="M123.396,51.025c1.106,0,1.785,0.786,1.785,2.154c0,0.116,0,0.232-0.02,0.35h-3.357
		c0.02,1.174,0.708,2.019,1.757,2.019c0.504,0,0.902-0.165,1.252-0.418l0.174,0.33c-0.368,0.224-0.785,0.456-1.465,0.456
		c-1.193,0-2.154-0.912-2.154-2.436S122.357,51.025,123.396,51.025z M124.774,53.199c0-1.194-0.534-1.806-1.368-1.806
		c-0.796,0-1.505,0.689-1.602,1.806H124.774z"/>
	<path fill="#00AEEF" d="M126.444,51.142h0.369l0.039,0.718h0.028c0.476-0.476,0.961-0.834,1.602-0.834
		c0.961,0,1.407,0.582,1.407,1.785V55.8h-0.427v-2.931c0-0.99-0.311-1.456-1.067-1.456c-0.554,0-0.951,0.291-1.523,0.874V55.8
		h-0.428V51.142z"/>
	<path fill="#00AEEF" d="M133.288,51.025c0.563,0,0.941,0.213,1.407,0.572l-0.019-0.854v-1.922h0.427V55.8h-0.369l-0.039-0.602
		h-0.028c-0.379,0.378-0.894,0.718-1.515,0.718c-1.174,0-1.931-0.863-1.931-2.436C131.222,51.977,132.183,51.025,133.288,51.025z
		 M133.211,55.538c0.515,0,0.971-0.272,1.466-0.767v-2.767c-0.495-0.437-0.903-0.602-1.359-0.602c-0.932,0-1.64,0.903-1.64,2.077
		C131.678,54.713,132.221,55.538,133.211,55.538z"/>
</g>
<path fill="#85CFF3" d="M49.75,15.385c-1.054-0.736-3.142-1.389-4.511-1.576c-0.779-0.104-1.538-0.064-2.266,0.09
	c-0.278,0.047-0.565,0.121-0.862,0.244c-1.97,0.71-3.247,2.438-4.119,4.429c-1.918,4.355-4.854,7.39-7.894,10.399
	c-2.496,2.47-6.471,5.813-12.163,6.313c-0.851,0.074-1.723,0.052-2.596-0.067c-0.113-0.016-0.226-0.033-0.338-0.052
	c0.041,0.129,0.084,0.258,0.127,0.386c1.941,5.688,6.798,10.158,13.022,11.369c0.322,0.063,0.649,0.12,0.979,0.165
	c0.009,0,0.016,0,0.021,0.002c1.204,0.162,2.396,0.195,3.562,0.111c0.281-0.021,0.561-0.048,0.836-0.081
	c0.947-0.115,1.874-0.311,2.774-0.577c2.636-0.776,5.036-2.171,7.009-4.041c2.045-2.048,3.442-4.559,4.566-7.293
	c0.646-1.574,1.204-3.225,1.741-4.899l0.211-0.659c0.569-1.801,1.406-3.971,2.738-5.949v-6C51.547,16.791,50.47,15.89,49.75,15.385z
	"/>
<circle fill="#FFFFFF" cx="46.909" cy="19.079" r="0.827"/>
<g>
	<path fill="#00AEEF" d="M55.622,20.427c-0.259-0.241-1.609-1.488-3.033-2.729v6C53.398,22.492,54.394,21.36,55.622,20.427z"/>
	<g>
		<g>
			<path fill="#00AEEF" d="M55.668,20.438h8.412c5.13,0,9.09,1.396,9.09,6.111c0,2.188-1.282,4.563-4.148,5.318v0.15
				c3.508,0.642,5.355,2.49,5.355,5.771c0,5.017-4.225,7.242-9.58,7.242h-9.129V20.438z M63.816,30.359
				c2.715,0,3.922-1.169,3.922-3.018s-1.282-2.603-3.847-2.603h-2.641v5.62H63.816z M64.344,40.732c3.018,0,4.602-1.132,4.602-3.357
				c0-2.149-1.546-3.093-4.602-3.093h-3.093v6.45H64.344z"/>
			<path fill="#00AEEF" d="M85.766,25.87c5.318,0,7.959,3.886,7.959,8.978c0,0.981-0.113,1.886-0.227,2.339H82.295
				c0.49,2.829,2.377,4.074,4.866,4.074c1.396,0,2.678-0.415,4.036-1.245l1.848,3.356c-1.924,1.32-4.413,2.113-6.639,2.113
				c-5.355,0-9.467-3.621-9.467-9.808C76.939,29.604,81.276,25.87,85.766,25.87z M89.01,33.754c0-2.149-0.906-3.659-3.131-3.659
				c-1.735,0-3.244,1.17-3.621,3.659H89.01z"/>
			<path fill="#00AEEF" d="M107,33c-0.113-1.66-0.943-2.716-2.942-2.716c-1.584,0-3.169,0.641-4.979,1.697l-1.961-3.659
				c2.376-1.434,5.055-2.452,7.996-2.452c4.791,0,7.432,2.717,7.432,8.449v10.713h-4.526l-0.415-1.924h-0.113
				c-1.584,1.396-3.357,2.377-5.47,2.377c-3.395,0-5.545-2.49-5.545-5.658C96.476,35.904,99.606,33.754,107,33z M103.906,41.185
				c1.283,0,2.113-0.604,3.094-1.584v-3.281c-3.961,0.527-5.243,1.659-5.243,3.093C101.757,40.619,102.587,41.185,103.906,41.185z"
				/>
			<path fill="#00AEEF" d="M117.295,18.591h5.394v15.163h0.151l5.922-7.431h6.035l-6.563,7.695l7.054,11.014h-5.998l-4.225-7.28
				l-2.376,2.679v4.602h-5.394V18.591z"/>
		</g>
	</g>
</g>
</svg>
